# xmcd
#
# Track frame offsets:
#	150
#	13381
#	28538
#	43695
#	59050
#	77257
#	92285
#	107926
#	124834
#	138784
#	154395
#	169131
#
# Disc length: 2447 seconds
#
# Revision: 1
# Processed by: cddbd v1.5.2PL0 Copyright (c) Steve Scherf et al.
# Submitted via: audiograbber 1.83.01
#
DISCID=99098d0c
DTITLE=Kelsea Ballerini - The First Time
DYEAR=2015
DGENRE=Country
TTITLE0=XO
TTITLE1=Peter Pan
TTITLE2=Love Me Like You Mean It
TTITLE3=Square Pegs
TTITLE4=The First Time
TTITLE5=Looking At Stars
TTITLE6=Sirens
TTITLE7=Secondhand Smoke
TTITLE8=Dibs
TTITLE9=Stilettos
TTITLE10=Yeah Boy
TTITLE11=Underage
EXTD=
EXTT0=
EXTT1=
EXTT2=
EXTT3=
EXTT4=
EXTT5=
EXTT6=
EXTT7=
EXTT8=
EXTT9=
EXTT10=
EXTT11=
PLAYORDER=
